<?xml version="1.0" standalone="no"?>
<!DOCTYPE svg PUBLIC "-//W3C//DTD SVG 20010904//EN"
 "http://www.w3.org/TR/2001/REC-SVG-20010904/DTD/svg10.dtd">
<svg version="1.0" xmlns="http://www.w3.org/2000/svg"
 width="328.000000pt" height="328.000000pt" viewBox="0 0 328.000000 328.000000"
 preserveAspectRatio="xMidYMid meet">
<metadata>
Created by potrace 1.14, written by Peter Selinger 2001-2017
</metadata>
<g transform="translate(0.000000,328.000000) scale(0.100000,-0.100000)"
fill="#000000" stroke="none">
<path d="M1152 2682 c-12 -2 -20 -7 -17 -12 3 -5 -3 -11 -14 -15 -17 -5 -27
-26 -37 -73 -1 -7 4 -19 12 -26 8 -8 14 -22 14 -32 0 -10 3 -15 6 -11 4 3 12
0 20 -7 18 -18 91 -18 119 0 53 35 56 122 3 154 -16 9 -39 17 -51 16 -12 -1
-24 1 -27 4 -3 3 -15 4 -28 2z m38 -42 c3 -3 17 -11 33 -17 23 -11 27 -19 27
-51 l0 -38 -45 -3 c-33 -1 -47 2 -51 13 -3 9 -9 14 -13 11 -4 -2 -8 2 -9 10
-5 53 -3 69 12 77 9 5 13 14 9 21 -6 10 22 -7 37 -23z"/>
<path d="M639 2603 c-1 -5 -1 -12 0 -16 1 -4 -6 -10 -14 -13 -16 -7 -21 -34
-6 -34 13 0 25 20 29 48 2 19 -6 34 -9 15z"/>
<path d="M536 2566 c7 -19 32 -28 40 -14 4 6 3 8 -3 5 -6 -4 -13 0 -17 8 -3 8
-10 15 -15 15 -6 0 -8 -6 -5 -14z"/>
<path d="M1601 2566 c-7 -9 -17 -14 -21 -11 -13 8 -18 -27 -8 -53 4 -13 5 -28
2 -34 -3 -5 3 -4 15 4 26 16 46 71 33 93 -8 15 -10 15 -21 1z"/>
<path d="M1889 2539 c-9 -9 -20 -15 -23 -12 -10 10 -23 -62 -14 -85 14 -39 34
-52 80 -52 74 0 94 37 79 142 -1 4 -11 10 -23 14 -42 14 -81 11 -99 -7z m65
-22 c7 7 25 -40 23 -58 -6 -37 -40 -46 -72 -19 -15 13 -26 60 -14 60 5 0 9 7
9 15 0 11 5 12 24 5 13 -5 27 -6 30 -3z"/>
<path d="M937 2518 c-2 -7 0 -22 6 -32 11 -23 17 -106 8 -121 -3 -5 -7 -18 -8
-27 -4 -26 -54 -170 -68 -198 -16 -31 -52 -36 -60 -9 -4 10 -11 19 -17 19 -6
0 -8 3 -5 7 4 3 1 13 -7 22 -8 9 -15 18 -15 21 0 9 -22 65 -44 110 -12 25 -22
47 -23 50 -4 22 -18 39 -27 33 -6 -4 -8 0 -4 11 4 10 -1 24 -13 36 -11 11 -20
16 -20 12 0 -5 3 -12 7 -16 8 -7 11 -25 15 -73 1 -18 6 -33 10 -33 4 0 7 -3 7
-7 -1 -5 0 -10 1 -13 1 -3 3 -13 6 -22 2 -10 6 -26 8 -35 3 -10 5 -18 6 -18 1
0 3 -17 5 -37 2 -21 9 -46 14 -57 6 -11 11 -38 11 -60 0 -22 4 -51 9 -64 6
-14 13 -44 16 -68 4 -23 16 -83 27 -133 11 -50 22 -111 24 -136 3 -25 10 -61
16 -82 l11 -36 51 5 c28 3 68 5 88 6 24 0 35 4 31 11 -4 6 0 5 9 -2 12 -9 18
-10 23 -2 4 7 11 8 18 1 7 -5 48 -8 92 -7 89 3 105 0 105 -20 0 -13 -78 -235
-105 -299 -7 -16 -20 -49 -30 -72 -16 -39 -30 -49 -80 -59 -54 -11 -63 -16
-74 -42 -7 -16 -10 -42 -7 -58 2 -16 5 -32 5 -36 1 -5 7 -8 14 -8 7 0 23 -11
35 -24 16 -19 18 -27 8 -35 -7 -6 -18 -33 -26 -61 -7 -27 -17 -50 -22 -50 -4
0 -8 -7 -8 -16 0 -9 -6 -30 -14 -47 -35 -83 -35 -83 -18 -118 40 -79 130 -52
146 44 1 6 8 22 15 35 7 13 14 31 16 40 2 9 20 57 39 106 20 49 36 95 36 103
0 7 5 13 10 13 6 0 10 7 10 15 0 8 8 15 18 15 10 0 22 4 28 10 5 5 32 13 59
16 27 3 56 9 65 14 8 4 33 9 55 11 22 1 45 6 50 10 6 4 32 10 58 13 26 3 57
11 69 17 40 22 110 10 114 -19 1 -11 14 -45 25 -64 5 -10 9 -27 9 -37 0 -11 5
-23 10 -26 6 -3 10 -15 10 -26 0 -10 4 -27 9 -37 5 -9 24 -64 43 -122 18 -58
36 -106 41 -108 4 -2 7 -12 7 -21 0 -25 32 -51 62 -51 42 0 71 31 70 76 0 36
-21 113 -43 159 -10 21 -129 363 -133 380 -1 6 -4 15 -7 20 -6 9 -16 47 -19
67 -1 4 -5 21 -10 36 -4 16 -5 34 -1 40 3 6 44 12 91 13 69 2 129 10 195 28 3
0 10 1 16 1 50 0 -203 120 -258 123 -7 0 -13 4 -13 9 0 4 -11 8 -24 8 -14 0
-32 8 -42 18 -10 9 -19 16 -21 15 -10 -8 -21 0 -26 17 -4 17 0 20 27 20 18 0
38 -6 45 -12 11 -10 13 -10 7 0 -8 14 10 17 18 3 3 -5 15 -7 26 -4 11 3 17 9
15 14 -3 4 -12 6 -20 2 -8 -3 -15 0 -15 7 0 6 -4 9 -9 6 -5 -4 -11 -1 -13 6
-2 6 -19 12 -38 13 -19 1 -36 7 -38 13 -2 7 -11 12 -20 12 -14 0 -42 43 -47
70 -1 3 -7 25 -15 50 -25 83 -23 87 48 162 24 26 50 57 56 70 7 13 20 35 30
51 10 15 14 27 10 27 -5 0 -2 5 6 10 8 5 15 14 15 20 0 6 5 14 11 18 17 12 23
39 11 51 -9 9 -8 11 4 6 11 -4 18 1 22 17 11 40 -7 38 -32 -4 -12 -22 -17 -37
-9 -32 14 8 0 -11 -34 -50 -10 -11 -19 -23 -19 -28 -1 -4 -2 -12 -3 -17 0 -5
-11 -21 -23 -35 -13 -14 -24 -29 -25 -34 -1 -4 -9 -15 -17 -24 -14 -17 -16
-16 -33 1 -9 11 -20 31 -24 45 -3 14 -10 26 -16 26 -5 0 -7 4 -3 9 3 5 1 12
-5 16 -6 4 -8 10 -6 14 3 4 -1 32 -7 62 -12 50 -14 155 -4 224 11 75 -22 63
-49 -18 -9 -29 -20 -56 -24 -62 -5 -5 -9 -14 -10 -20 -6 -26 -21 -57 -38 -75
-10 -11 -25 -33 -33 -48 -8 -15 -18 -30 -24 -34 -5 -4 -6 -8 -1 -8 5 0 -12
-20 -38 -45 -25 -25 -46 -50 -46 -56 0 -8 -4 -8 -13 0 -8 6 -16 8 -20 5 -3 -3
-3 3 0 15 3 12 1 21 -6 21 -6 0 -11 9 -11 20 0 11 -4 20 -10 20 -5 0 -10 -9
-10 -20 0 -11 5 -20 10 -20 6 0 10 -11 10 -24 0 -14 5 -28 10 -31 6 -4 8 -11
5 -16 -4 -5 -1 -9 5 -9 6 0 8 -4 5 -10 -3 -5 -2 -10 3 -10 5 0 12 -8 14 -17 3
-10 6 -22 8 -28 1 -5 14 -20 28 -31 l24 -22 -17 -53 c-26 -76 -35 -83 -103
-74 -116 16 -234 20 -324 12 -41 -3 -61 -1 -69 9 -6 7 -8 17 -6 21 3 5 -2 24
-10 43 -9 19 -15 41 -14 48 1 6 -2 12 -6 12 -4 0 -9 10 -9 23 -2 30 -10 62
-23 85 -13 25 -17 74 -7 90 10 17 26 15 26 -4 0 -22 88 -101 120 -107 14 -3
35 -4 46 -2 10 2 24 4 31 4 21 2 115 103 119 129 3 14 8 30 12 36 7 12 9 18
11 41 1 15 39 55 53 55 4 0 8 -7 8 -15 0 -8 5 -15 10 -15 7 0 7 6 0 20 -6 11
-8 20 -4 20 3 0 0 8 -7 17 -8 9 -9 14 -2 10 12 -7 12 10 1 28 -4 6 -5 23 -4
38 2 15 0 30 -5 33 -4 2 -6 11 -3 18 3 8 1 17 -5 21 -11 6 -13 1 -14 -50 0
-16 -3 -32 -6 -35 -9 -8 -41 -103 -41 -121 0 -14 -19 -29 -35 -29 -5 0 -39 75
-42 94 -2 11 -9 26 -16 34 -6 8 -12 20 -12 26 0 22 -38 105 -45 101 -5 -3 0
12 10 32 10 20 16 43 13 50 -7 17 -60 17 -66 1z m246 -273 c-3 -9 -8 -14 -10
-11 -3 3 -2 9 2 15 9 16 15 13 8 -4z m105 -554 c19 -2 14 -38 -5 -43 -10 -3
-67 -6 -128 -6 -60 -1 -145 -3 -188 -5 -81 -4 -112 8 -83 33 9 6 20 9 25 6 5
-4 12 -3 15 2 2 4 22 9 42 10 21 2 39 4 41 5 2 3 254 1 281 -2z m222 -52 c0
-16 -31 -22 -43 -10 -9 9 -9 14 2 20 16 10 41 4 41 -10z m-2 -98 c1 -1 5 -1 8
0 22 2 68 -98 55 -120 -11 -18 -119 -1 -150 23 -12 9 -13 8 -6 -3 5 -9 4 -12
-3 -7 -11 7 -12 66 -1 66 3 0 10 10 16 23 8 18 18 22 44 21 19 -1 35 -2 37 -3z
m307 -68 c17 -3 33 -10 36 -15 3 -5 14 -11 24 -12 19 -3 34 -25 18 -27 -4 0
-19 -2 -33 -5 -66 -11 -80 -11 -93 -1 -8 7 -17 26 -20 44 -6 29 -4 31 16 26
12 -3 36 -7 52 -10z m-314 -87 c8 -3 31 -8 52 -11 21 -3 44 -11 51 -18 21 -20
35 -91 21 -105 -1 -1 -22 -5 -45 -7 -24 -2 -57 -9 -74 -15 -17 -5 -44 -11 -61
-12 -16 -1 -33 -6 -36 -11 -4 -5 -32 -11 -64 -12 l-57 -3 7 36 c4 20 22 67 41
104 l35 69 58 -5 c32 -3 65 -8 72 -10z"/>
<path d="M2624 2370 c-12 -5 -24 -16 -27 -25 -5 -11 -3 -14 6 -9 9 6 9 4 1 -7
-12 -16 -12 -29 -1 -46 5 -7 4 -13 -1 -13 -5 0 -15 -13 -22 -29 -6 -16 -18
-32 -26 -35 -8 -3 -14 -9 -14 -14 0 -5 -46 -57 -103 -115 -57 -59 -102 -107
-100 -107 2 0 -6 -9 -17 -20 -11 -11 -20 -24 -20 -28 0 -5 -7 -9 -15 -9 -8 0
-12 4 -9 9 3 4 0 8 -6 8 -6 0 -8 5 -5 10 4 6 1 17 -5 25 -7 8 -9 15 -4 15 5 0
3 4 -3 8 -7 4 -14 17 -16 27 -1 11 -5 25 -9 30 -3 6 -9 28 -12 50 -4 21 -10
42 -14 45 -9 6 -9 81 1 97 4 6 1 14 -5 16 -7 3 -5 6 6 6 11 1 17 4 13 7 -3 4
0 13 8 21 17 17 19 32 6 52 -8 12 -15 13 -34 4 -20 -9 -24 -19 -25 -59 -1 -26
-8 -55 -16 -63 -7 -9 -21 -31 -31 -50 -14 -29 -68 -104 -104 -146 -15 -18 -61
-55 -65 -52 -2 1 -13 -6 -23 -16 -11 -9 -22 -14 -25 -11 -16 16 0 -87 17 -105
10 -12 15 -21 12 -21 -15 0 46 -50 66 -54 12 -2 27 -5 32 -7 23 -6 100 15 119
32 11 11 24 18 30 16 14 -5 68 51 61 63 -3 6 1 7 9 4 9 -3 16 -1 16 5 0 6 7 8
17 4 11 -4 14 -3 9 5 -4 7 -2 12 3 12 6 0 11 -6 11 -12 0 -9 4 -8 10 2 5 8 10
11 10 6 0 -5 9 3 20 17 12 15 20 29 20 33 -2 10 30 27 37 20 4 -3 1 -6 -6 -6
-7 0 -9 -5 -6 -10 4 -6 11 -8 16 -5 5 4 9 2 9 -3 0 -6 -6 -12 -14 -15 -8 -3
-14 -15 -13 -26 0 -11 5 -17 10 -14 4 3 6 7 3 10 -2 3 2 12 10 21 8 10 14 21
13 25 0 5 14 22 32 38 18 16 28 29 23 29 -5 0 -4 4 2 8 6 4 24 32 40 62 16 30
38 64 50 75 11 11 26 30 32 41 7 13 20 21 34 20 90 -7 119 62 56 128 -29 29
-47 36 -74 26z"/>
<path d="M1850 2280 c0 -19 3 -21 12 -12 9 9 9 15 0 24 -9 9 -12 7 -12 -12z"/>
<path d="M1231 2159 c2 -21 8 -36 15 -36 7 0 11 4 8 9 -3 4 -7 18 -9 29 -7 37
-16 35 -14 -2z"/>
<path d="M1879 2103 c-1 -5 -2 -35 -3 -69 -1 -41 3 -61 11 -61 7 0 10 4 7 9
-3 4 -5 35 -5 68 0 33 -3 60 -5 60 -2 0 -5 -3 -5 -7z"/>
</g>
</svg>
